<mxfile host="app.diagrams.net" agent="Mozilla/5.0 (Windows NT 10.0; Win64; x64; rv:126.0) Gecko/20100101 Firefox/126.0" version="24.7.6">
  <diagram name="Page-1" id="d3LdweZT4fRPcN9dQcqC">
    <mxGraphModel dx="1434" dy="706" grid="0" gridSize="10" guides="1" tooltips="1" connect="1" arrows="1" fold="1" page="1" pageScale="1" pageWidth="850" pageHeight="1100" math="0" shadow="0">
      <root>
        <mxCell id="0" />
        <mxCell id="1" parent="0" />
        <mxCell id="pc-WNJ3CxkC1v4LnrZJZ-12" style="edgeStyle=orthogonalEdgeStyle;rounded=0;orthogonalLoop=1;jettySize=auto;html=1;entryX=0.5;entryY=0;entryDx=0;entryDy=0;movable=0;resizable=0;rotatable=0;deletable=0;editable=0;locked=1;connectable=0;" parent="1" source="pc-WNJ3CxkC1v4LnrZJZ-1" target="pc-WNJ3CxkC1v4LnrZJZ-4" edge="1">
          <mxGeometry relative="1" as="geometry" />
        </mxCell>
        <mxCell id="pc-WNJ3CxkC1v4LnrZJZ-14" style="edgeStyle=orthogonalEdgeStyle;rounded=0;orthogonalLoop=1;jettySize=auto;html=1;entryX=0;entryY=0.5;entryDx=0;entryDy=0;movable=0;resizable=0;rotatable=0;deletable=0;editable=0;locked=1;connectable=0;" parent="1" source="pc-WNJ3CxkC1v4LnrZJZ-1" target="pc-WNJ3CxkC1v4LnrZJZ-6" edge="1">
          <mxGeometry relative="1" as="geometry" />
        </mxCell>
        <mxCell id="pc-WNJ3CxkC1v4LnrZJZ-1" value="&lt;div&gt;Assn2&lt;/div&gt;" style="rounded=0;whiteSpace=wrap;html=1;movable=0;resizable=0;rotatable=0;deletable=0;editable=0;locked=1;connectable=0;" parent="1" vertex="1">
          <mxGeometry x="299" y="52" width="120" height="60" as="geometry" />
        </mxCell>
        <mxCell id="pc-WNJ3CxkC1v4LnrZJZ-2" value="&lt;div&gt;displayMenu&lt;/div&gt;&lt;div&gt;processOption&lt;/div&gt;&lt;div&gt;waitForEnter&lt;/div&gt;&lt;div&gt;&lt;br&gt;&lt;/div&gt;" style="rounded=0;whiteSpace=wrap;html=1;movable=0;resizable=0;rotatable=0;deletable=0;editable=0;locked=1;connectable=0;" parent="1" vertex="1">
          <mxGeometry x="474" y="39" width="120" height="60" as="geometry" />
        </mxCell>
        <mxCell id="pc-WNJ3CxkC1v4LnrZJZ-4" value="&lt;div style=&quot;font-size: 12px;&quot; align=&quot;center&quot;&gt;stringToUpper&lt;/div&gt;&lt;div style=&quot;font-size: 12px;&quot; align=&quot;center&quot;&gt;inputSensorData&lt;/div&gt;&lt;div style=&quot;font-size: 12px;&quot; align=&quot;center&quot;&gt;computeArea&lt;/div&gt;&lt;div style=&quot;font-size: 12px;&quot; align=&quot;center&quot;&gt;printShapesReport&lt;/div&gt;&lt;div style=&quot;font-size: 12px;&quot; align=&quot;center&quot;&gt;displaySortmenu&lt;/div&gt;&lt;div style=&quot;font-size: 12px;&quot; align=&quot;center&quot;&gt;sortAscending&lt;/div&gt;&lt;div style=&quot;font-size: 12px;&quot; align=&quot;center&quot;&gt;sortDescending&lt;/div&gt;&lt;div style=&quot;padding-top: 0px; padding-right: 0px; font-size: 12px;&quot; align=&quot;center&quot;&gt;sortType&lt;br style=&quot;font-size: 12px;&quot;&gt;&lt;/div&gt;&lt;div style=&quot;font-size: 12px;&quot; align=&quot;center&quot;&gt;&lt;br style=&quot;font-size: 12px;&quot;&gt;&lt;/div&gt;&lt;div style=&quot;font-size: 12px;&quot; align=&quot;justify&quot;&gt;&lt;br style=&quot;font-size: 12px;&quot;&gt;&lt;/div&gt;&lt;div style=&quot;font-size: 12px;&quot; align=&quot;center&quot;&gt;&lt;br style=&quot;font-size: 12px;&quot;&gt;&lt;/div&gt;&lt;div style=&quot;font-size: 12px;&quot; align=&quot;justify&quot;&gt;&lt;br style=&quot;font-size: 12px;&quot;&gt;&lt;/div&gt;" style="rounded=0;html=1;verticalAlign=top;horizontal=1;fontSize=12;labelBackgroundColor=none;labelBorderColor=none;whiteSpace=wrap;movable=0;resizable=0;rotatable=0;deletable=0;editable=0;locked=1;connectable=0;" parent="1" vertex="1">
          <mxGeometry x="126" y="112" width="155" height="179" as="geometry" />
        </mxCell>
        <mxCell id="pc-WNJ3CxkC1v4LnrZJZ-6" value="&lt;div&gt;displayExportmenu&lt;/div&gt;&lt;div&gt;inputFilename&lt;/div&gt;&lt;div&gt;exportToFile&lt;/div&gt;&lt;div&gt;exportAscending&lt;/div&gt;&lt;div&gt;exportDescending&lt;/div&gt;&lt;div&gt;exportType&lt;br&gt;&lt;/div&gt;&lt;div&gt;&lt;br&gt;&lt;/div&gt;" style="rounded=0;whiteSpace=wrap;html=1;movable=0;resizable=0;rotatable=0;deletable=0;editable=0;locked=1;connectable=0;" parent="1" vertex="1">
          <mxGeometry x="413" y="199" width="110" height="152" as="geometry" />
        </mxCell>
        <mxCell id="pc-WNJ3CxkC1v4LnrZJZ-7" value="deallocateMemory" style="rounded=0;whiteSpace=wrap;html=1;movable=0;resizable=0;rotatable=0;deletable=0;editable=0;locked=1;connectable=0;" parent="1" vertex="1">
          <mxGeometry x="261" y="325" width="120" height="60" as="geometry" />
        </mxCell>
        <mxCell id="pc-WNJ3CxkC1v4LnrZJZ-10" style="edgeStyle=orthogonalEdgeStyle;rounded=0;orthogonalLoop=1;jettySize=auto;html=1;entryX=0.021;entryY=0.614;entryDx=0;entryDy=0;entryPerimeter=0;movable=0;resizable=0;rotatable=0;deletable=0;editable=0;locked=1;connectable=0;" parent="1" source="pc-WNJ3CxkC1v4LnrZJZ-1" target="pc-WNJ3CxkC1v4LnrZJZ-2" edge="1">
          <mxGeometry relative="1" as="geometry" />
        </mxCell>
        <mxCell id="pc-WNJ3CxkC1v4LnrZJZ-13" style="edgeStyle=orthogonalEdgeStyle;rounded=0;orthogonalLoop=1;jettySize=auto;html=1;entryX=0.464;entryY=0.008;entryDx=0;entryDy=0;entryPerimeter=0;movable=0;resizable=0;rotatable=0;deletable=0;editable=0;locked=1;connectable=0;" parent="1" source="pc-WNJ3CxkC1v4LnrZJZ-1" target="pc-WNJ3CxkC1v4LnrZJZ-7" edge="1">
          <mxGeometry relative="1" as="geometry" />
        </mxCell>
        <mxCell id="pc-WNJ3CxkC1v4LnrZJZ-16" value="&lt;div&gt;ShapeTwoD&lt;/div&gt;" style="swimlane;whiteSpace=wrap;html=1;" parent="1" vertex="1">
          <mxGeometry x="317" y="407" width="227" height="374" as="geometry" />
        </mxCell>
        <mxCell id="pc-WNJ3CxkC1v4LnrZJZ-31" value="&lt;div align=&quot;left&quot;&gt;# string name &lt;br&gt;&lt;/div&gt;&lt;div align=&quot;left&quot;&gt;# bool containsWarpSpace&lt;/div&gt;&lt;div align=&quot;left&quot;&gt;# int id&lt;br&gt;&lt;/div&gt;" style="text;html=1;align=left;verticalAlign=middle;whiteSpace=wrap;rounded=0;" parent="pc-WNJ3CxkC1v4LnrZJZ-16" vertex="1">
          <mxGeometry x="8" y="21" width="191" height="48" as="geometry" />
        </mxCell>
        <mxCell id="pc-WNJ3CxkC1v4LnrZJZ-19" value="&lt;div&gt;+ ShapeTwoD(string name = &quot;&quot;, bool containsWarpSpace = false){}&lt;/div&gt;&lt;div&gt;+ void setName(string name)&lt;br&gt;+ string getName()&lt;/div&gt;&amp;nbsp; + virtual double getArea()&lt;br&gt;&amp;nbsp; + bool getContainsWarpSpace()&lt;br&gt;&amp;nbsp; + virtual double computeArea()&lt;br&gt;&amp;nbsp; + virtual bool isPointInShape(int x, int y)&lt;br&gt;&amp;nbsp; + virtual bool isPointOnShape(int x, int y) &lt;br&gt;&lt;div&gt;&amp;nbsp; + void setContainsWarpSpace(bool containsWarpSpace)&lt;/div&gt;&lt;div&gt;+ virtual void setArea()&lt;/div&gt;&lt;div&gt;+ virtual void setCoord() &lt;br&gt;&lt;/div&gt;&lt;div&gt;+ virtual string toString()&lt;/div&gt;&lt;div&gt;+ virtual ~ShapeTwoD() = default;&lt;/div&gt;" style="rounded=0;whiteSpace=wrap;html=1;" parent="pc-WNJ3CxkC1v4LnrZJZ-16" vertex="1">
          <mxGeometry y="80" width="227" height="294" as="geometry" />
        </mxCell>
        <mxCell id="pc-WNJ3CxkC1v4LnrZJZ-20" value="Rectangle" style="swimlane;whiteSpace=wrap;html=1;" parent="1" vertex="1">
          <mxGeometry x="594" y="434" width="209" height="321" as="geometry" />
        </mxCell>
        <mxCell id="pc-WNJ3CxkC1v4LnrZJZ-21" value="" style="rounded=0;whiteSpace=wrap;html=1;" parent="pc-WNJ3CxkC1v4LnrZJZ-20" vertex="1">
          <mxGeometry y="132" width="209" height="189" as="geometry" />
        </mxCell>
        <mxCell id="pc-WNJ3CxkC1v4LnrZJZ-38" value="&lt;div&gt;- int xCoord[4]&amp;nbsp;&amp;nbsp;&lt;/div&gt;&lt;div&gt;- int yCoord[4]&lt;/div&gt;&amp;nbsp; - int area&lt;br&gt;&amp;nbsp;- int xMin&lt;br&gt;&amp;nbsp;- int yMin&lt;br&gt;- int xMax&lt;br&gt;&amp;nbsp;- int yMax" style="text;html=1;align=center;verticalAlign=middle;whiteSpace=wrap;rounded=0;" parent="pc-WNJ3CxkC1v4LnrZJZ-20" vertex="1">
          <mxGeometry y="23" width="208" height="107" as="geometry" />
        </mxCell>
        <mxCell id="pc-WNJ3CxkC1v4LnrZJZ-39" value="&amp;nbsp;+ Rectangle(string name, bool containsWarpSpace, int id)&lt;br&gt;&amp;nbsp;+ double getArea()&lt;br&gt;&amp;nbsp; + double computeArea()&lt;br&gt;&amp;nbsp; + bool isPointInShape(int x, int y)&lt;br&gt;&amp;nbsp; + bool isPointOnShape(int x, int y)&lt;br&gt;+ void setCoord()&lt;br&gt;+ void setArea()&lt;br&gt;&lt;div&gt;&amp;nbsp; + string toString()&lt;/div&gt;&lt;div&gt;+ ~Rectangle() override&lt;br&gt;&lt;/div&gt;" style="text;html=1;align=center;verticalAlign=middle;whiteSpace=wrap;rounded=0;" parent="pc-WNJ3CxkC1v4LnrZJZ-20" vertex="1">
          <mxGeometry x="7.5" y="134" width="194" height="187" as="geometry" />
        </mxCell>
        <mxCell id="pc-WNJ3CxkC1v4LnrZJZ-22" value="Square" style="swimlane;whiteSpace=wrap;html=1;" parent="1" vertex="1">
          <mxGeometry x="48" y="442" width="220" height="319" as="geometry" />
        </mxCell>
        <mxCell id="pc-WNJ3CxkC1v4LnrZJZ-23" value="&amp;nbsp;+ Square(string name, bool containsWarpSpace, int id)&lt;br&gt;+ double getArea()&lt;br&gt;&amp;nbsp; + double computeArea()&lt;br&gt;&amp;nbsp; + bool isPointInShape(int x, int y)&lt;br&gt;&lt;div&gt;&amp;nbsp; + bool isPointOnShape(int x, int y)&lt;/div&gt;&lt;div&gt;+ string toString()&lt;/div&gt;&lt;div&gt;+ void setCoord()&lt;/div&gt;&lt;div&gt;+ void setArea()&lt;br&gt;+ ~Square () override&lt;br&gt;&lt;/div&gt;" style="rounded=0;whiteSpace=wrap;html=1;" parent="pc-WNJ3CxkC1v4LnrZJZ-22" vertex="1">
          <mxGeometry x="-1" y="130" width="221" height="189" as="geometry" />
        </mxCell>
        <mxCell id="pc-WNJ3CxkC1v4LnrZJZ-36" value="&amp;nbsp;- int xCoord[4]&amp;nbsp; &lt;br&gt;- int yCoord[4]&lt;br&gt;&lt;div&gt;- int area&lt;/div&gt;&lt;div&gt;- int xMin&lt;/div&gt;&lt;div&gt;- int yMin&lt;/div&gt;&lt;div&gt;- int xMax&lt;/div&gt;&amp;nbsp;- int yMax" style="text;html=1;align=center;verticalAlign=middle;whiteSpace=wrap;rounded=0;" parent="pc-WNJ3CxkC1v4LnrZJZ-22" vertex="1">
          <mxGeometry x="-2" y="23" width="221" height="104" as="geometry" />
        </mxCell>
        <mxCell id="pc-WNJ3CxkC1v4LnrZJZ-24" value="Circle" style="swimlane;whiteSpace=wrap;html=1;" parent="1" vertex="1">
          <mxGeometry x="180" y="810" width="204" height="252" as="geometry" />
        </mxCell>
        <mxCell id="pc-WNJ3CxkC1v4LnrZJZ-40" value="&lt;br&gt;&amp;nbsp; - int xCoord&lt;br&gt;&amp;nbsp; - int yCoord&lt;br&gt;&amp;nbsp;- int radius&lt;br&gt;&amp;nbsp; - double area" style="text;html=1;align=center;verticalAlign=middle;whiteSpace=wrap;rounded=0;" parent="pc-WNJ3CxkC1v4LnrZJZ-24" vertex="1">
          <mxGeometry y="23" width="204" height="69" as="geometry" />
        </mxCell>
        <mxCell id="pc-WNJ3CxkC1v4LnrZJZ-25" value="" style="rounded=0;whiteSpace=wrap;html=1;" parent="pc-WNJ3CxkC1v4LnrZJZ-24" vertex="1">
          <mxGeometry y="103" width="204" height="150" as="geometry" />
        </mxCell>
        <mxCell id="pc-WNJ3CxkC1v4LnrZJZ-41" value="&amp;nbsp; + Circle(string name, bool containsWarpSpace, int id)&lt;br&gt;+ double getArea()&lt;br&gt;&amp;nbsp; + double computeArea()&lt;br&gt;&amp;nbsp; + bool isPointInShape(int x, int y)&lt;br&gt;&amp;nbsp; + bool isPointOnShape(int x, int y)&lt;br&gt;+ void setCoord&lt;br&gt;+ void setArea&lt;br&gt;&amp;nbsp; + string toString&lt;br&gt;+ ~Circle () override" style="text;html=1;align=center;verticalAlign=middle;whiteSpace=wrap;rounded=0;" parent="pc-WNJ3CxkC1v4LnrZJZ-24" vertex="1">
          <mxGeometry x="0.5" y="105.5" width="203" height="145" as="geometry" />
        </mxCell>
        <mxCell id="pc-WNJ3CxkC1v4LnrZJZ-26" value="Cross" style="swimlane;whiteSpace=wrap;html=1;" parent="1" vertex="1">
          <mxGeometry x="446" y="803" width="314" height="342" as="geometry" />
        </mxCell>
        <mxCell id="pc-WNJ3CxkC1v4LnrZJZ-43" value="- int xCoord[12]&lt;br&gt;&amp;nbsp;- int yCoord[12]&lt;br&gt;&amp;nbsp;- int area&lt;br&gt;&amp;nbsp;- int xMin&lt;br&gt;&amp;nbsp;- int yMin&lt;br&gt;&amp;nbsp;- int xMax&lt;br&gt;&amp;nbsp; - int yMax&lt;br&gt;&lt;div&gt;&lt;br&gt;&lt;/div&gt;" style="text;html=1;align=center;verticalAlign=middle;whiteSpace=wrap;rounded=0;" parent="pc-WNJ3CxkC1v4LnrZJZ-26" vertex="1">
          <mxGeometry y="24" width="308" height="125" as="geometry" />
        </mxCell>
        <mxCell id="pc-WNJ3CxkC1v4LnrZJZ-42" value="" style="rounded=0;whiteSpace=wrap;html=1;" parent="pc-WNJ3CxkC1v4LnrZJZ-26" vertex="1">
          <mxGeometry y="133" width="314" height="209" as="geometry" />
        </mxCell>
        <mxCell id="pc-WNJ3CxkC1v4LnrZJZ-44" value="&lt;div&gt;&amp;nbsp; + Cross(string name, bool containsWarpSpace, int id)&lt;/div&gt;&lt;div&gt;+ double getArea()&lt;/div&gt;&amp;nbsp; + double computeArea()&lt;br&gt;&amp;nbsp; + bool isPointInShape(int x, int y)&lt;br&gt;&amp;nbsp; + bool isPointOnShape(int x, int y)&lt;br&gt;&amp;nbsp;+ bool isPointaVertex(int x, int y)&lt;br&gt;&amp;nbsp; + int pnpoly(int nvert, int *vertx, int *verty, int testx, int testy)&lt;br&gt;+ void setCoord()&lt;br&gt;+ void setArea()&lt;br&gt;+ string toString()&lt;br&gt;+ ~Cross() override" style="text;html=1;align=center;verticalAlign=middle;whiteSpace=wrap;rounded=0;" parent="pc-WNJ3CxkC1v4LnrZJZ-26" vertex="1">
          <mxGeometry y="134.5" width="313" height="206" as="geometry" />
        </mxCell>
      </root>
    </mxGraphModel>
  </diagram>
</mxfile>
